<?xml version="1.0" encoding="utf-8"?>
<svg viewBox="0 0 754 750" xmlns="http://www.w3.org/2000/svg">
  <ellipse style="stroke: rgb(0, 0, 0); fill: rgb(255, 182, 56);" cx="373.725" cy="375.637" rx="357.143" ry="357.781"/>
  <g transform="matrix(0.1, 0, 0, -0.1, 0, 750)" fill="#000000" stroke="none">
    <path d="M3580 7360 c-499 -27 -965 -150 -1415 -373 -696 -345 -1283 -932 -1621 -1620 -30 -62 -59 -119 -64 -128 -18 -34 -99 -238 -128 -324 -45 -132 -117 -421 -141 -565 -62 -376 -62 -840 -1 -1195 42 -243 116 -512 197 -719 41 -106 195 -426 243 -506 324 -540 758 -977 1279 -1289 345 -207 731 -353 1160 -441 482 -98 1081 -81 1566 45 55 14 117 30 137 36 57 14 229 73 293 99 520 218 864 443 1235 810 382 377 699 890 875 1414 33 100 113 411 126 494 52 337 66 606 46 919 -38 605 -243 1213 -582 1722 -229 345 -462 598 -795 864 -228 182 -515 351 -810 476 -41 18 -84 36 -95 41 -61 25 -235 85 -293 99 -20 6 -82 22 -137 36 -326 85 -727 124 -1075 105z m515 -80 c66 -6 140 -14 165 -19 25 -5 81 -15 125 -21 44 -6 96 -15 115 -20 19 -5 82 -21 140 -35 315 -77 656 -219 945 -395 61 -36 121 -73 135 -81 14 -8 27 -17 30 -20 3 -3 46 -34 95 -68 80 -57 112 -82 230 -181 98 -83 323 -307 376 -374 13 -16 34 -41 46 -55 13 -13 49 -59 81 -100 31 -42 60 -77 65 -79 4 -2 7 -8 7 -14 0 -6 16 -30 35 -54 19 -23 35 -45 35 -49 0 -3 20 -36 44 -73 194 -299 368 -704 446 -1041 11 -47 24 -102 29 -121 6 -19 15 -71 21 -115 6 -44 16 -100 21 -125 38 -189 38 -782 0 -985 -6 -27 -15 -84 -21 -125 -6 -41 -15 -91 -20 -110 -5 -19 -21 -84 -36 -145 -14 -60 -39 -148 -56 -195 -16 -47 -33 -98 -38 -115 -8 -30 -62 -166 -101 -253 -64 -145 -191 -378 -260 -479 -16 -23 -29 -45 -29 -48 0 -4 -16 -26 -35 -49 -19 -24 -35 -46 -35 -49 0 -4 -6 -15 -14 -24 -8 -10 -43 -54 -79 -99 -134 -169 -372 -418 -472 -495 -16 -13 -34 -28 -40 -34 -20 -22 -112 -93 -200 -156 -49 -34 -91 -67 -93 -71 -2 -4 -8 -8 -13 -8 -5 0 -40 -20 -77 -44 -280 -182 -632 -337 -972 -428 -172 -47 -205 -53 -510 -101 -100 -15 -720 -15 -820 0 -305 48 -338 54 -510 101 -340 91 -692 246 -972 428 -37 24 -70 44 -73 44 -4 0 -26 16 -49 35 -24 19 -46 35 -49 35 -4 0 -15 6 -24 14 -10 8 -63 50 -118 93 -156 123 -341 300 -454 432 -25 30 -56 66 -69 80 -12 13 -48 59 -80 100 -31 42 -60 77 -64 79 -5 2 -8 8 -8 14 0 6 -16 30 -35 54 -19 23 -35 45 -35 49 0 3 -20 36 -44 73 -80 123 -183 314 -245 454 -39 87 -93 223 -101 253 -5 17 -22 68 -38 115 -17 47 -42 135 -56 195 -15 61 -31 126 -36 145 -5 19 -14 71 -20 115 -6 44 -15 98 -20 121 -22 97 -32 337 -26 599 3 149 10 293 15 320 5 28 14 84 21 125 24 152 29 177 53 280 88 366 253 752 454 1062 23 37 43 70 43 73 0 4 16 26 35 49 19 24 35 46 35 49 0 4 6 15 14 24 8 10 50 63 93 118 123 156 300 341 432 454 30 25 66 56 80 69 13 12 59 48 100 80 42 31 78 60 79 65 2 4 8 7 14 7 6 0 30 16 54 35 23 19 45 35 49 35 3 0 36 20 73 44 292 190 675 356 1007 437 66 16 136 33 155 38 19 5 69 15 110 21 41 6 100 15 130 21 147 27 590 38 815 19z"/>
    <path d="M4396 6450 c-45 -40 -91 -114 -106 -170 -7 -25 -14 -51 -16 -59 -3 -11 -8 -10 -28 2 -57 38 -150 67 -212 67 -39 0 -66 -5 -71 -12 -4 -7 -7 -45 -6 -83 1 -97 43 -186 126 -267 84 -81 168 -121 268 -126 l77 -4 -5 -38 c-7 -48 28 -169 64 -225 43 -65 121 -135 189 -166 65 -30 162 -47 208 -35 25 6 26 9 26 86 0 72 -3 85 -39 154 l-38 74 34 7 c59 11 146 57 191 102 23 23 42 47 42 53 0 5 -16 28 -36 50 -39 43 -138 97 -195 106 l-36 6 36 70 c32 63 36 81 40 160 l3 90 -83 -3 c-72 -4 -94 -9 -156 -40 -40 -20 -75 -34 -78 -31 -3 3 -5 16 -5 29 0 13 -4 31 -10 41 -5 9 -16 33 -25 53 -19 42 -78 114 -105 129 -15 8 -26 4 -54 -20z"/>
    <path d="M3628 5872 l-28 -3 0 -195 0 -194 170 0 170 0 -2 182 -3 183 -55 12 c-55 12 -201 21 -252 15z"/>
    <path d="M3385 5812 c-149 -83 -191 -109 -235 -149 l-50 -45 0 -69 0 -69 168 2 167 3 0 169 c0 105 -4 170 -10 172 -5 1 -23 -5 -40 -14z"/>
    <path d="M4100 5620 l0 -140 145 0 c133 0 144 1 138 18 -29 80 -219 262 -273 262 -6 0 -10 -49 -10 -140z"/>
    <path d="M2707 5223 c-114 -117 -187 -219 -172 -243 9 -15 378 -13 393 2 8 8 12 60 12 170 l0 158 -73 0 -74 0 -86 -87z"/>
    <path d="M3102 5143 l3 -168 145 -3 c80 -1 155 0 168 3 22 5 22 8 22 170 l0 165 -170 0 -170 0 2 -167z"/>
    <path d="M3602 5143 l3 -168 165 0 165 0 3 168 2 167 -170 0 -170 0 2 -167z"/>
    <path d="M4100 5146 c0 -140 2 -165 16 -170 31 -12 359 -7 372 6 15 15 15 126 2 223 -17 116 4 105 -206 105 l-184 0 0 -164z"/>
    <path d="M2453 4783 c-9 -37 -10 -273 -1 -295 6 -15 30 -17 233 -17 124 0 232 2 240 5 12 5 15 34 15 170 l0 164 -240 0 -240 0 -7 -27z"/>
    <path d="M3102 4643 l3 -168 144 -3 c80 -2 155 -1 168 3 23 5 23 6 23 170 l0 165 -170 0 -170 0 2 -167z"/>
    <path d="M3602 4643 l3 -168 165 0 165 0 3 168 2 167 -170 0 -170 0 2 -167z"/>
    <path d="M4102 4643 l3 -168 66 -3 67 -3 45 53 c65 77 167 247 167 279 0 5 -76 9 -175 9 l-175 0 2 -167z"/>
    <path d="M2521 4268 c61 -119 143 -220 234 -288 54 -39 160 -100 176 -100 6 0 8 82 7 213 l-3 212 -218 3 -218 2 22 -42z"/>
    <path d="M3100 4071 c0 -273 -11 -246 100 -255 36 -3 103 0 150 7 l85 12 0 235 0 235 -167 3 -168 2 0 -239z"/>
    <path d="M3600 4105 c0 -113 2 -205 5 -205 7 0 76 40 110 63 17 11 74 63 128 116 l97 95 0 68 0 68 -170 0 -170 0 0 -205z"/>
    <path d="M3615 3100 c-239 -43 -281 -389 -61 -499 111 -55 266 -17 332 81 86 128 47 320 -78 390 -50 27 -131 39 -193 28z m126 -94 c43 -18 63 -41 79 -90 15 -48 8 -141 -14 -184 -30 -59 -126 -88 -193 -60 -39 17 -83 58 -83 79 0 10 -4 21 -10 24 -15 9 -12 108 4 146 15 35 45 67 81 87 28 16 96 15 136 -2z"/>
    <path d="M2890 2840 l0 -261 48 3 47 3 3 113 3 112 119 0 120 0 0 -115 0 -115 45 0 45 0 0 260 0 260 -45 0 -44 0 -3 -107 -3 -108 -117 -3 -117 -3 -3 108 -3 108 -47 3 -48 3 0 -261z"/>
    <path d="M4015 3087 c-3 -7 -4 -123 -3 -257 l3 -245 155 0 155 0 0 35 0 35 -100 5 -100 5 -3 218 -2 217 -51 0 c-31 0 -51 -5 -54 -13z"/>
    <path d="M4270 3088 c0 -7 9 -24 20 -38 11 -14 20 -29 20 -33 0 -5 8 -21 19 -35 18 -27 62 -103 88 -154 8 -15 18 -30 24 -33 5 -4 9 -53 9 -111 l0 -104 45 0 45 0 0 99 c0 88 3 102 25 135 14 20 25 38 25 40 0 2 29 52 65 112 36 60 65 115 65 122 0 8 -16 12 -45 12 -51 0 -57 -7 -136 -159 l-42 -82 -45 83 c-24 46 -53 100 -64 121 -19 35 -23 37 -69 37 -33 0 -49 -4 -49 -12z"/>
    <path d="M5635 2361 c-41 -10 -66 -25 -95 -56 -21 -22 -25 -36 -25 -90 0 -59 3 -67 30 -94 17 -17 61 -41 100 -56 67 -24 105 -53 105 -80 0 -7 -9 -24 -21 -39 -17 -21 -29 -26 -67 -26 -29 0 -59 8 -80 20 -43 26 -56 25 -77 -6 -16 -25 -16 -27 5 -49 26 -28 104 -55 156 -55 117 0 209 133 159 230 -19 37 -55 62 -130 89 -95 35 -117 69 -75 111 26 26 84 26 133 0 l37 -20 20 32 c17 29 18 34 4 49 -15 17 -105 50 -133 48 -9 -1 -29 -4 -46 -8z"/>
    <path d="M1759 2353 c-4 -25 -4 -491 -1 -506 4 -15 13 -17 51 -15 l46 3 3 87 3 86 66 8 c115 12 164 46 192 132 12 34 12 50 2 82 -16 55 -62 104 -109 118 -43 13 -251 17 -253 5z m243 -100 c25 -26 27 -96 3 -123 -17 -19 -79 -40 -119 -40 l-26 0 0 96 0 96 60 -4 c44 -3 66 -10 82 -25z"/>
    <path d="M2195 2347 c-3 -7 -4 -125 -3 -262 l3 -250 48 -3 47 -3 0 265 0 266 -45 0 c-28 0 -48 -5 -50 -13z"/>
    <path d="M2412 2098 l3 -263 40 0 40 0 5 173 5 172 80 -102 c44 -57 85 -110 92 -118 6 -8 33 -41 58 -73 42 -51 51 -58 79 -55 l31 3 0 260 0 260 -42 3 -43 3 -2 -177 -3 -176 -135 173 c-129 166 -137 174 -173 177 l-37 3 2 -263z"/>
    <path d="M2955 2347 c-3 -7 -4 -125 -3 -262 l3 -250 163 -3 162 -2 0 44 0 45 -112 3 -113 3 0 65 0 65 90 5 90 5 3 32 c4 38 -5 42 -113 45 l-70 3 0 65 0 65 113 3 112 3 0 39 0 40 -160 0 c-121 0 -162 -3 -165 -13z"/>
    <path d="M3497 2328 c-8 -18 -20 -49 -27 -68 -7 -19 -16 -44 -21 -55 -4 -11 -31 -78 -59 -150 -28 -71 -55 -137 -59 -145 -5 -9 -12 -30 -16 -48 -7 -32 -6 -32 32 -32 38 1 73 18 73 38 0 6 9 31 20 56 l19 46 100 0 100 0 15 -32 c9 -17 16 -37 16 -43 0 -7 9 -24 21 -39 15 -19 30 -26 54 -26 19 0 36 4 40 9 5 9 -25 95 -61 178 -8 17 -14 34 -14 38 0 3 -8 25 -18 48 -11 23 -29 69 -41 102 -12 33 -28 74 -36 90 -7 17 -16 38 -19 48 -4 13 -17 17 -55 17 -47 0 -51 -2 -64 -32z m87 -136 c8 -26 22 -65 30 -87 24 -64 24 -65 -55 -65 l-71 0 6 31 c3 17 12 45 20 62 8 18 20 51 27 74 7 23 16 40 20 37 5 -3 15 -26 23 -52z"/>
    <path d="M3865 2347 c-3 -7 -4 -125 -3 -262 l3 -250 48 -3 47 -3 0 89 0 89 70 7 c39 4 86 14 105 22 139 58 130 265 -14 313 -48 16 -250 15 -256 -2z m221 -73 c13 -3 29 -23 40 -46 18 -39 17 -41 -1 -76 -16 -28 -30 -39 -66 -50 -26 -8 -58 -12 -73 -8 -26 6 -26 8 -26 96 l0 90 53 0 c28 0 62 -3 73 -6z"/>
    <path d="M4312 2098 l3 -263 24 -3 c12 -2 34 -1 47 2 23 6 24 10 24 90 l0 84 68 7 c94 9 151 39 180 95 12 24 22 60 22 80 0 55 -38 120 -85 144 -33 17 -63 22 -163 24 l-122 4 2 -264z m214 176 c24 -6 54 -53 54 -83 0 -58 -37 -88 -122 -98 l-48 -6 0 97 0 96 48 0 c26 0 56 -3 68 -6z"/>
    <path d="M4750 2095 l0 -266 148 3 147 3 3 42 3 42 -103 3 -103 3 -3 218 -2 217 -45 0 -45 0 0 -265z"/>
    <path d="M5118 2343 c-9 -38 -2 -493 8 -503 7 -7 70 -9 165 -8 l154 3 0 40 0 40 -112 3 -113 3 0 69 0 69 88 3 87 3 3 29 c5 39 -10 46 -100 46 l-78 0 0 70 0 69 113 3 112 3 0 35 0 35 -161 3 c-148 2 -162 1 -166 -15z"/>
  </g>
</svg>